<svg xmlns="http://www.w3.org/2000/svg" width="1200" height="700" viewBox="0 0 1200 700" role="img" aria-labelledby="title desc">
  <title id="title">RunbookOS incident workspace</title>
  <desc id="desc">Incident response timeline, evidence analysis, and governed next action.</desc>
  <rect width="1200" height="700" rx="22" fill="#f5f5f7"/>
  <rect x="20" y="20" width="190" height="660" rx="14" fill="#fff" stroke="#d2d2d7"/>
  <text x="44" y="60" font-family="system-ui" font-size="19" font-weight="700" fill="#1d1d1f">RunbookOS</text>
  <g font-family="system-ui" font-size="13" fill="#6e6e73">
    <text x="44" y="112">Overview</text><rect x="32" y="130" width="154" height="38" rx="8" fill="#f5f5f7"/>
    <text x="44" y="154" fill="#1d1d1f" font-weight="600">Incidents</text><text x="44" y="202">Runbooks</text>
    <text x="44" y="246">Approvals</text><text x="44" y="290">Integrations</text>
    <text x="44" y="334">Audit log</text><text x="44" y="378">System health</text>
  </g>
  <rect x="230" y="20" width="950" height="660" rx="14" fill="#fff" stroke="#d2d2d7"/>
  <text x="260" y="59" font-family="system-ui" font-size="12" fill="#86868b">SEV-2 · CHECKOUT-API · INVESTIGATING</text>
  <text x="260" y="96" font-family="system-ui" font-size="27" font-weight="700" fill="#1d1d1f">Checkout error rate increased</text>
  <text x="260" y="125" font-family="system-ui" font-size="13" fill="#6e6e73">Grounded evidence, deterministic policy, and human-governed remediation.</text>
  <line x1="260" y1="150" x2="1150" y2="150" stroke="#d2d2d7"/>
  <rect x="260" y="178" width="410" height="464" rx="12" fill="#fff" stroke="#d2d2d7"/>
  <text x="282" y="214" font-family="system-ui" font-size="17" font-weight="700" fill="#1d1d1f">Response timeline</text>
  <line x1="300" y1="245" x2="300" y2="588" stroke="#d2d2d7" stroke-width="2"/>
  <g font-family="system-ui">
    <g fill="#2e7d32"><circle cx="300" cy="265" r="6"/><circle cx="300" cy="333" r="6"/><circle cx="300" cy="401" r="6"/></g>
    <circle cx="300" cy="469" r="6" fill="#c67d1a"/><circle cx="300" cy="537" r="6" fill="#d2d2d7"/>
    <g font-size="14" font-weight="600" fill="#1d1d1f">
      <text x="322" y="270">Signal detected</text><text x="322" y="338">Evidence collected</text>
      <text x="322" y="406">AI analysis grounded</text><text x="322" y="474">Policy decision</text>
      <text x="322" y="542">Approval and execution</text>
    </g>
    <g font-size="11" fill="#86868b">
      <text x="322" y="290">GitHub · 14:02:18 UTC</text><text x="322" y="358">n8n diagnostics · 3 items</text>
      <text x="322" y="426">Demo analyzer · cited</text><text x="322" y="494">Java control plane · reversible</text>
      <text x="322" y="562">Authorized responder required</text>
    </g>
  </g>
  <rect x="690" y="178" width="280" height="282" rx="12" fill="#fff" stroke="#d2d2d7"/>
  <text x="714" y="214" font-family="system-ui" font-size="17" font-weight="700" fill="#1d1d1f">Evidence &amp; analysis</text>
  <rect x="714" y="238" width="232" height="74" rx="9" fill="#f5f5f7"/>
  <text x="730" y="265" font-family="system-ui" font-size="12" font-weight="600" fill="#1d1d1f">Deployment changed 8m ago</text>
  <text x="730" y="289" font-family="system-ui" font-size="11" fill="#6e6e73">deploy-01 · commit-03</text>
  <rect x="714" y="328" width="232" height="106" rx="9" fill="#f5f5f7"/>
  <text x="730" y="354" font-family="system-ui" font-size="10" fill="#86868b">LIKELY ROOT CAUSE</text>
  <text x="730" y="381" font-family="system-ui" font-size="13" font-weight="600" fill="#1d1d1f">Connection pool regression</text>
  <text x="730" y="408" font-family="system-ui" font-size="11" fill="#6e6e73">82% · evidence linked · advisory</text>
  <rect x="990" y="178" width="160" height="282" rx="12" fill="#fff" stroke="#d2d2d7"/>
  <text x="1010" y="214" font-family="system-ui" font-size="16" font-weight="700" fill="#1d1d1f">Next action</text>
  <text x="1010" y="250" font-family="system-ui" font-size="11" fill="#6e6e73">Rollback release</text>
  <text x="1010" y="274" font-family="system-ui" font-size="10" fill="#c67d1a">REVERSIBLE</text>
  <rect x="1010" y="300" width="120" height="38" rx="8" fill="#1d1d1f"/>
  <text x="1024" y="324" font-family="system-ui" font-size="11" font-weight="600" fill="#fff">Review approval</text>
  <text x="1010" y="372" font-family="system-ui" font-size="10" fill="#86868b">AI recommends.</text>
  <text x="1010" y="390" font-family="system-ui" font-size="10" fill="#86868b">Java authorizes.</text>
  <text x="1010" y="408" font-family="system-ui" font-size="10" fill="#86868b">Humans approve.</text>
  <rect x="690" y="480" width="460" height="162" rx="12" fill="#0b0b0c"/>
  <text x="714" y="514" font-family="ui-monospace" font-size="11" fill="#a1a1a6">AUDIT EVENT</text>
  <text x="714" y="546" font-family="ui-monospace" font-size="12" fill="#f5f5f7">policy.decision  REQUIRE_APPROVAL</text>
  <text x="714" y="578" font-family="ui-monospace" font-size="12" fill="#66bb6a">integrity hash    verified</text>
  <text x="714" y="610" font-family="ui-monospace" font-size="12" fill="#a1a1a6">correlation       7fb1…42d9</text>
</svg>
